<svg width="19" height="40" fill="none" xmlns="http://www.w3.org/2000/svg"><path d="M7.455 39.72h0l.01-.002.243-.04a2.163 2.163 0 001.665-1.36l1.34-3.502h.001l.004-.012 1.207-3.7.004-.014.003-.013.355-1.705a2.75 2.75 0 01.117-.404l1.125-3v-.002l.675-1.754c.094-.244.153-.501.175-.762l.022-.261c.015-.188.076-.37.176-.53h0l.006-.01s0 0 0 0a1.64 1.64 0 00.15-1.43l-.117-.323a1.213 1.213 0 01.09-1.02l1.058-1.836.007-.012.006-.013.498-1.137c.056-.13.086-.27.086-.413v-.05a.946.946 0 00-.803-.935l-.601-.093a.408.408 0 01-.343-.454l.097-.773a.842.842 0 01.187-.432l-.192-.16.192.16.025-.029a.704.704 0 01.657-.244l.128.021c.094.016.189.024.284.024h.322a.98.98 0 00.946-.72l.538-1.95.13-.392c.015-.045.034-.09.055-.133l.013-.026a1.1 1.1 0 00.06-.145l.064-.191a.719.719 0 00-.107-.66.22.22 0 01-.043-.13v-.44c0-.164.026-.328.078-.485l.15-.449h0l.003-.01.277-.968a1.424 1.424 0 00-.472-1.498l-.64-.52a3.152 3.152 0 00-.494-.329l-1.844-.993-1.6-.96-1.768-1.125-.008-.005-.008-.005-.729-.388a3.25 3.25 0 00-1.1-.354L9.53.586a3.25 3.25 0 00-.832-.003l-.903.112-.013.002L7.77.7l-1.8.415a2.75 2.75 0 01-.54.07l-2.518.072h0-.003l-1.693.073a.414.414 0 00.018.829h.022l.37 2.519.804 6.269.563 5.306v.008l.002.009.481 2.726.21 1.95c.022.212.065.42.129.623l.23.739c.051.163.087.33.107.499l.128 1.09h0v.004l.24 1.762.16 2.155v.387a.02.02 0 01-.01.018.52.52 0 00-.283.535l1.325 9.624a1.563 1.563 0 001.743 1.338z" fill="#9EFFB3" fill-opacity=".6" stroke="#222" stroke-width=".5"/></svg>