<svg width="23" height="40" fill="none" xmlns="http://www.w3.org/2000/svg"><path d="M10.45.82h0l-.007.001-9.32 1.165a.63.63 0 00-.513.84l.232-.084-.232.085.22.604c.056.157.126.31.206.455l.77 1.4.72 1.521v.001l.966 2.011h0l1.072 2.215c.072.15.11.314.11.48 0 .26.063.516.184.746l.646 1.227.962 2.085.005.01.005.01.75 1.31c.131.23.228.478.289.735l.15.638c.052.22.127.435.223.64l.51 1.083h0l.002.005 1.126 2.252 1.121 2.242.475 1.221c.06.156.133.307.217.45l.763 1.32.64 1.358h0l.002.005 1.342 2.685c.076.152.164.297.263.436l2.276 3.186h0l.008.011 1.041 1.302c.135.168.224.368.26.58.071.433.303.823.648 1.094l.237.186c.313.246.679.415 1.07.493l.048-.245-.049.245.034.007c.173.034.349.052.525.052h.728a1.107 1.107 0 001.098-1.26L20.88 27.506a1.283 1.283 0 00-.124-.398.78.78 0 01-.078-.272l-.062-.615-.001-.014-.003-.013-.739-3.472a2.75 2.75 0 01-.06-.572v-1.614c0-.175-.014-.35-.042-.522l-.524-3.217-.482-3.454v-.002L17.239 1.938a1.635 1.635 0 00-1.795-1.61l-4.995.494z" fill="#9EFFB3" fill-opacity=".6" stroke="#222" stroke-width=".5"/></svg>