<svg width="33" height="34" fill="none" xmlns="http://www.w3.org/2000/svg"><path d="M2.38 3.818l-.008.001-.008.002A1.685 1.685 0 00.97 5.737l.596 3.918.958 8.452c.018.163.05.325.092.484l.69 2.546.634 3.861.727 5.742a3.25 3.25 0 003.589 2.821l.648-.073h.009l.009-.003 5.846-1.1.015-.002.014-.005 1.587-.498c.267-.084.545-.127.824-.127h.98c.255 0 .51-.03.757-.089l2.31-.553 3.003-.52h.002l1.827-.332a2.75 2.75 0 011.3.077l.376.116c.31.095.631.143.955.143h1.584a1.572 1.572 0 001.573-1.572v-.546l-.002-.016-.406-3.126v-.001l-.636-4.685-.48-4.583a3.247 3.247 0 00-.196-.822l-.414-1.083a2.75 2.75 0 01-.182-.983V8.971l-.001-.014-.753-6.54h0V2.41a2.083 2.083 0 00-2.63-1.718l-.285.08a2.34 2.34 0 00-.73.353l-1.297.932a2.645 2.645 0 00-.504.474l.193.158-.193-.158a2.646 2.646 0 00-.503.973l-.099.356.237-1.26c.016-.088.024-.177.024-.265V2.24a1.203 1.203 0 00-1.203-1.204h-.542c-.186 0-.371.021-.553.062l.055.243-.055-.243-2.228.508-6.762 1.228-3.523.342h0-.005l-3.485.413-2.338.23zm19.698 2.184l.373-1.044-.848 2.914v.002l-1.388 4.511-.003.009-.002.008-.7 3.017a.04.04 0 01-.08-.009v-.506c0-.06.01-.118.028-.173l.48-1.44.003-.008.002-.008.752-2.836h0l.003-.012.403-1.898.34-1.076.63-1.434.004-.009.003-.008z" fill="#9EFFB3" fill-opacity=".6" stroke="#222" stroke-width=".5"/></svg>