<svg width="37" height="30" fill="none" xmlns="http://www.w3.org/2000/svg"><path d="M20.887 28.945h.014l.014-.002 1.893-.213 3.576-.319h0l.013-.001 2.679-.383 3.955-.404h.002l2.704-.25a.835.835 0 00.759-.831v-.564c0-.286-.043-.57-.126-.843l-.114-.374-.253-1.58h0L36 23.168l-.213-1.017a2.751 2.751 0 01-.058-.564v-.785l-.001-.012-.088-1.016a3.252 3.252 0 00-.075-.469l-.146-.617a2.75 2.75 0 01-.074-.633v-.944a3.25 3.25 0 00-.049-.562l-.231-1.319h0l-.108-.617a2.754 2.754 0 01-.041-.473v-1.116c0-.206-.02-.412-.058-.614l-.443-2.302-.397-2.63-.298-2.332-.298-2.933h0l-.002-.012a1.979 1.979 0 00-1.956-1.68h-1.09c-.26 0-.518.03-.77.092L28.02 1l-2.454.496-3.073.496-2.224.222-4.222.174h-.013l-.013.002-3.583.523h0l-3.315.49a2.75 2.75 0 01-.402.03H7.347a3.25 3.25 0 00-.586.053l-2.981.546-2.341.247h-.063A.631.631 0 00.93 5.356l.177-.177-.177.177c.05.05.11.092.174.123l.18.085a1.3 1.3 0 01.468.381l.332.435c.128.169.289.31.472.416.128.075.24.174.33.292l1.053 1.398h0l.006.007 1.482 1.825c.082.1.157.207.224.319l1.009 1.681.47.818c.122.213.215.44.277.677l.371 1.427h0v.003l.474 1.717.003.013.005.013.57 1.438.77 2.185.006.016.008.015.304.597c.209.409.502.769.86 1.056l1.255 1.008 1.309 1.284h0l.005.005 2.23 2.07c.147.138.28.29.394.457l.382.556c.043.062.08.129.11.198l.377.857a.779.779 0 001.034.396.28.28 0 01.077-.022l1.142-.157h1.794z" fill="#9EFFB3" fill-opacity=".6" stroke="#222" stroke-width=".5"/></svg>