<svg width="40" height="27" fill="none" xmlns="http://www.w3.org/2000/svg"><path d="M27.185 23.72l.017-.003 1.401-.193a.25.25 0 00.214-.282l6.513-.897a.25.25 0 00.282.214l1.401-.193c.253-.035.495-.099.723-.189a.25.25 0 00.141-.324l-.004-.01a2.894 2.894 0 001.588-2.33h.01a.25.25 0 00.25-.25 3.15 3.15 0 00-.086-.73l-.154-1.032a.25.25 0 00-.285-.21l-.706-4.718a.25.25 0 00.21-.284l-.312-2.085a.25.25 0 00-.284-.21l-.707-4.717a.25.25 0 00.21-.285l-.155-1.042a3.258 3.258 0 00-.189-.706.25.25 0 00-.333-.138 3.007 3.007 0 00-2.234-1.64v-.01a.25.25 0 00-.231-.267 3.26 3.26 0 00-.73.031l-1.076.169a.25.25 0 00-.208.286l-4.882.764a.25.25 0 00-.286-.208l-2.15.337a.25.25 0 00-.208.286l-4.882.764a.25.25 0 00-.286-.208l-2.15.337a.25.25 0 00-.209.286l-4.881.764a.25.25 0 00-.286-.208l-2.15.337a.25.25 0 00-.209.286l-4.881.764a.25.25 0 00-.286-.208l-1.075.169a3.26 3.26 0 00-.696.189.25.25 0 00-.136.334 3.007 3.007 0 00-1.625 2.193l-.01-.001a.25.25 0 00-.27.228 3.26 3.26 0 00.021.72l.143 1.014a.25.25 0 00.283.212l.643 4.57a.25.25 0 00-.213.282l.286 2.026a.25.25 0 00.282.213l.644 4.57a.25.25 0 00-.213.282l.143 1.013c.034.243.094.477.178.697a.25.25 0 00.332.142 3.007 3.007 0 002.162 1.659l-.002.01a.25.25 0 00.224.273c.235.024.476.022.72-.008l.886-.109a.25.25 0 00.217-.279l3.932-.482a.25.25 0 00.279.218l1.771-.218a.25.25 0 00.218-.278l3.932-.483a.25.25 0 00.278.218l.884-.108h.002l.61-.07a.25.25 0 00.219-.278l2.559-.295a.25.25 0 00.277.22l.611-.071a3.12 3.12 0 00.186-.027.25.25 0 00.203-.29l-.002-.01c.118-.03.234-.068.348-.113l.004.01a.25.25 0 00.335.112c.056-.028.112-.058.166-.089l.013-.007a.237.237 0 00.031-.021.241.241 0 00.034-.016l.013-.008a3.43 3.43 0 01.18-.094.25.25 0 00.123-.324c.19-.072.389-.125.59-.157a.25.25 0 00.267.22c.068-.004.136-.007.204-.007h.182a.25.25 0 00.25-.25h.408c0 .138.112.25.25.25h.199z" fill="#FFF09E" fill-opacity=".8" stroke="#222" stroke-width=".5" stroke-linecap="round" stroke-dasharray="2 5"/></svg>