<svg width="27" height="36" fill="none" xmlns="http://www.w3.org/2000/svg"><path d="M10.754 3.672h0V3.67l-.523-.94a2.75 2.75 0 01-.325-.994l-.069-.555A.995.995 0 008.3.477l-.1.066.139.209L8.2.543a.608.608 0 01-.337.103H5.789a3.25 3.25 0 00-1.178.22l-1.537.598c-.59.23-1.1.626-1.467 1.14l.203.146-.203-.146-.022.031a3.25 3.25 0 00-.439.862l-.186.558a3.25 3.25 0 00-.167 1.027v.475c0 .349.057.696.167 1.027l.324.972.638 3.189.442 4.718c.028.3.098.594.207.874l.789 2.03c.133.34.323.658.561.936l.11.128c.314.366.526.809.615 1.283l.283 1.51c.031.167.047.337.047.507v1.132c0 .372.064.742.19 1.093l.539 1.51a2.8 2.8 0 01.123.474l.278 1.666.002.014.004.014.55 1.927c.056.193.084.393.084.595v.589c0 .708.422 1.349 1.073 1.628.113.048.219.113.313.192l.62.516c.098.081.183.176.253.282.37.554 1.013.862 1.677.801l4.38-.398h0l.011-.001 5.789-.804 3.955-.456a1.69 1.69 0 001.199-2.636l-.793-1.152-2.409-4.015-.005-.009-.006-.008-2.413-3.378-1.601-2.243-1.756-3.032-.798-1.915h0l-.002-.006-1.285-2.89-.964-2.41-.005-.013-.007-.012-1.124-2.088-1.124-2.249h0l-.005-.008-.965-1.77z" fill="#9EFFB3" fill-opacity=".6" stroke="#222" stroke-width=".5"/></svg>