<svg width="33" height="33" fill="none" xmlns="http://www.w3.org/2000/svg"><path d="M24.433.744l-.008.001-.008.001-3.759.617-6.772.985-5.233.43h0l-.014.002-3.99.553a2.705 2.705 0 00-2.014.918l-.453.515a3.25 3.25 0 00-.33.447L.826 6.884a3.25 3.25 0 00-.472 1.932l.386 5.38v4.247c0 .397.073.791.215 1.162l.573 1.497c.12.314.181.647.181.983v.948c0 .23.025.458.073.682l.426 1.987.003.012.004.013.362 1.106c.13.402.339.774.613 1.096l.485.571.005.006.005.005 1.175 1.226.01.01.01.009 2.704 2.262a2.62 2.62 0 002.004.625l.977-.107.01-.001.009-.002 2.428-.459 2.473-.338 2.104-.187.016-.001.015-.004 2.424-.525 2.963-.39 3.235-.288h4.378l.016-.002.62-.078a1.08 1.08 0 00.929-1.248l-.363-2.175-.476-3.723h0l-.001-.01-.303-1.76a.813.813 0 00-.511-.622.313.313 0 01-.194-.222l-.028-.123a.336.336 0 01.134-.352.836.836 0 00.342-.831l-.067-.374a1.222 1.222 0 00-1.31-1.002.739.739 0 01-.126 0l-.047-.005a.79.79 0 01-.71-.695.763.763 0 01.083-.447l.058-.108a.517.517 0 01.386-.268c.544-.075.93-.567.874-1.113l-.06-.572v-.008l-.002-.007-.272-1.63-.305-2.208-.409-3.334h0v-.01l-.39-2.424-.221-2.561-.002-.014-.002-.014A2.245 2.245 0 0025.847.608l-1.414.136z" fill="#9EFFB3" fill-opacity=".6" stroke="#222" stroke-width=".5"/></svg>