<svg width="72" height="25" fill="none" xmlns="http://www.w3.org/2000/svg"><path fill-rule="evenodd" clip-rule="evenodd" d="M61.197.68s-2.163 3.14-2.163 7.73c0 2.524.75 4.146 1.755 5.074a4.119 4.119 0 002.735 1.104c.98 0 1.736-.391 2.37-.72.2-.105.39-.203.569-.28l-.809-2.036c-.245.103-.475.207-.692.305l-.067.03-.01.004c-.607.274-1.081.489-1.361.489-.222 0-.795-.074-1.283-.518-.486-.444-1.044-1.346-1.044-3.451 0-3.24 1.072-5.186 1.483-5.868.548.201 1.132.368 1.73.538.861.246 1.75.5 2.594.877.844.375 1.537.876 2.025 1.485.489.608.812 1.341.812 2.484 0 1.092-.411 1.623-.812 2.002a.809.809 0 01-.109.092l-.06.046c-.587-1.372-1.532-2.71-3.005-3.9l-1.315 1.76c3.154 2.55 3.146 5.544 3.14 8.44v.43h2.161c0-1.302-.01-2.89-.34-4.52a4.74 4.74 0 001.015-.725c.746-.7 1.484-1.916 1.484-3.625 0-1.587-.492-2.92-1.283-3.9-.788-.979-1.835-1.609-2.869-2.07-1.262-.562-3.016-1.045-4.345-1.41-.855-.234-1.53-.42-1.783-.547l-.523.68zM6.218 24.647c-1.765 0-3.255-.596-4.437-1.805C.598 21.635 0 20.145 0 18.373c0-1.772.598-3.279 1.796-4.52 1.217-1.242 2.69-1.855 4.44-1.855 1.752 0 3.225.613 4.423 1.855 1.213 1.241 1.814 2.731 1.814 4.487 0 1.755-.6 3.245-1.814 4.47-1.198 1.226-2.672 1.838-4.44 1.838zm2.68-9.111c.727.745 1.085 1.672 1.085 2.798.014 1.11-.34 2.036-1.068 2.782-.732.744-1.621 1.109-2.676 1.109-1.05 0-1.944-.364-2.672-1.11-.713-.745-1.068-1.671-1.068-2.781s.355-2.053 1.086-2.798c.728-.745 1.603-1.126 2.654-1.126 1.055 0 1.93.381 2.658 1.126zm6.732 8.918V19.62c0-1.341.808-2.285 2.024-2.285 1.118 0 1.86.795 1.86 2.235v4.885H21.8V18.94c0-1.209-.34-2.136-1.005-2.781-.661-.646-1.487-.977-2.443-.977-1.248 0-2.303.629-2.77 1.507V15.43h-2.237v9.024h2.285zm15.852-3.71c.049-.364.08-.711.08-1.026 0-1.407-.418-2.5-1.244-3.311-.826-.811-1.895-1.225-3.175-1.225-1.36 0-2.464.447-3.322 1.341-.858.894-1.28 2.02-1.28 3.394 0 1.308.404 2.434 1.23 3.345.827.91 2.012 1.374 3.566 1.374 1.459 0 2.735-.414 3.853-1.242l-.907-1.64c-.76.53-1.895.912-2.851.912-1.393 0-2.25-.646-2.574-1.921h6.623zm-4.321-3.609c-1.15 0-2.011.712-2.285 1.887h4.486c-.211-1.175-1.037-1.887-2.201-1.887zm4.335 5.21c.987 1.474 2.671 2.285 4.535 2.285 1.311 0 2.366-.347 3.174-1.043.812-.695 1.217-1.59 1.217-2.682 0-1.358-.682-2.368-2.043-3.046-.306-.15-.794-.364-1.456-.646l-1.184-.53c-.647-.331-.97-.728-.97-1.209 0-.711.583-1.175 1.536-1.175.893 0 1.962.414 2.626 1.142l1.28-1.788c-1.069-1.11-2.38-1.656-3.938-1.656-1.199 0-2.187.348-2.946 1.027-.763.679-1.136 1.523-1.136 2.55 0 1.291.633 2.301 1.895 3.046.324.182.795.414 1.41.663l.211.083c.51.199.826.324.97.397.732.347 1.087.778 1.087 1.274 0 .779-.728 1.309-1.716 1.309-1.23 0-2.398-.597-3.175-1.706l-1.378 1.706zm9.312-2.412c0-1.324.436-2.45 1.33-3.36.889-.928 2.024-1.391 3.399-1.391 1.378 0 2.514.463 3.403 1.39.89.911 1.329 2.037 1.329 3.361 0 1.342-.44 2.468-1.329 3.378-.89.91-2.025 1.374-3.403 1.374-1.375 0-2.51-.463-3.4-1.374-.893-.91-1.329-2.036-1.329-3.378zm4.736 2.567c-.696 0-1.28-.248-1.75-.745-.468-.513-.697-1.126-.697-1.838 0-.712.229-1.324.696-1.821a2.316 2.316 0 011.75-.745c.697 0 1.263.248 1.734.745.468.497.71 1.11.71 1.821 0 .712-.242 1.325-.71 1.838a2.278 2.278 0 01-1.733.745zm7.759-8.512c.534-.547.534-1.507 0-2.037-.535-.546-1.473-.546-2.008 0-.534.53-.534 1.49 0 2.037.535.546 1.474.546 2.008 0zm-2.145 1.434h2.285v9.024H51.16v-9.023zM57 11.856h-2.285v12.583H57V11.855z" fill="#222"/></svg>